<svg width="200" height="311" viewBox="0 0 200 311" fill="none" xmlns="http://www.w3.org/2000/svg">
<g clip-path="url(#clip0_1602_2267)">
<rect y="311" width="311" height="200" rx="18" transform="rotate(-90 0 311)" fill="#111111"/>
<g clip-path="url(#clip1_1602_2267)">
<g clip-path="url(#clip2_1602_2267)">
<g clip-path="url(#clip3_1602_2267)">
<rect width="327" height="216" transform="matrix(0 -1 -1 0 215 311)" fill="#6E89B0"/>
</g>
<g clip-path="url(#clip4_1602_2267)">
<g clip-path="url(#clip5_1602_2267)">
<path d="M7.61526 220.92L-2.84316 210.5L-23.7801 231.33L-2.84316 252.17L7.61526 241.75L-2.84316 231.33L7.61526 220.92Z" fill="#355179"/>
<path d="M-2.84316 85.5005L7.61526 75.0805L-2.84316 64.6705L7.61526 54.2505L-2.84316 43.8305L-23.7801 64.6705L-2.84316 85.5005Z" fill="#355179"/>
<path d="M-44.707 314.67L28.5522 241.75L18.0837 231.33L-65.6339 314.67L18.0837 398L28.5522 387.58L-44.707 314.67Z" fill="#355179"/>
<path d="M49.4791 262.58L39.0106 252.17L-23.7801 314.67L39.0106 377.17L49.4791 366.75L-2.84316 314.67L49.4791 262.58Z" fill="#355179"/>
<path d="M70.4059 283.42L59.9476 273L18.0837 314.67L59.9476 356.33L70.4059 345.92L39.0106 314.67L70.4059 283.42Z" fill="#355179"/>
<path d="M91.3429 304.25L80.8744 293.83L59.9476 314.67L80.8744 335.5L91.3429 325.08L80.8744 314.67L91.3429 304.25Z" fill="#355179"/>
<path d="M18.0837 231.33L28.5522 220.92L-44.707 148L28.5522 75.0805L18.0837 64.6705L-65.6339 148L18.0837 231.33Z" fill="#355179"/>
<path d="M39.0106 210.5L49.4791 200.08L-2.84316 148L49.4791 95.9205L39.0106 85.5005L-23.7801 148L39.0106 210.5Z" fill="#355179"/>
<path d="M59.9476 189.67L70.4059 179.25L39.0106 148L70.4059 116.75L59.9476 106.33L18.0837 148L59.9476 189.67Z" fill="#355179"/>
<path d="M80.8744 168.83L91.3429 158.42L80.8744 148L91.3429 137.58L80.8744 127.171L59.9476 148L80.8744 168.83Z" fill="#355179"/>
<path d="M18.0837 64.6705L28.5522 54.2505L-44.707 -18.6695L28.5522 -91.5795L18.0837 -102L-65.6339 -18.6695L18.0837 64.6705Z" fill="#355179"/>
<path d="M39.0106 43.8305L49.4791 33.4205L-2.84316 -18.6695L49.4791 -70.7495L39.0106 -81.1695L-23.7801 -18.6695L39.0106 43.8305Z" fill="#355179"/>
<path d="M59.9476 23.0005L70.4059 12.5805L39.0106 -18.6695L70.4059 -49.9195L59.9476 -60.3295L18.0837 -18.6695L59.9476 23.0005Z" fill="#355179"/>
<path d="M80.8744 2.1705L91.3429 -8.24951L80.8744 -18.6695L91.3429 -29.0795L80.8744 -39.4995L59.9476 -18.6695L80.8744 2.1705Z" fill="#355179"/>
<path d="M112.27 158.42L101.801 148L18.0837 231.33L101.801 314.67L112.27 304.25L39.0106 231.33L112.27 158.42Z" fill="#355179"/>
<path d="M133.197 179.25L122.738 168.83L59.9476 231.33L122.738 293.83L133.197 283.42L80.8744 231.33L133.197 179.25Z" fill="#355179"/>
<path d="M101.801 148L112.27 137.58L39.0106 64.6705L112.27 -8.24951L101.801 -18.6695L18.0837 64.6705L101.801 148Z" fill="#355179"/>
<path d="M122.738 127.171L133.197 116.75L80.8744 64.6705L133.197 12.5805L122.738 2.1705L59.9476 64.6705L122.738 127.171Z" fill="#355179"/>
</g>
<path d="M23.2397 13.0162L47.7191 13C50.6071 13 52.9725 15.7878 52.9725 19.1753L53 59.0148C53 62.4348 50.6346 65.2226 47.7603 65.2226L23.2809 65.255C20.3792 65.255 18.0275 62.4672 18.0275 59.0635L18 19.2077C18 15.804 20.3379 13.0162 23.2397 13.0162Z" fill="#F6C859"/>
<path d="M48.3242 45.1083C48.3242 45.3352 48.2279 45.5459 48.0491 45.6432C47.8016 45.789 47.4853 45.6756 47.3615 45.3838C46.9764 44.5086 46.2613 43.3254 45.0373 42.6285C43.4696 41.7532 41.7643 41.9801 41.613 42.3529C41.5717 42.4502 41.7368 42.8067 41.833 43.0337C42.0806 43.6009 42.4244 44.3951 42.1493 45.3028C41.888 46.1942 41.2142 46.6319 40.8841 46.8426C38.7525 48.2203 33.224 48.6417 30.4735 47.1991C29.5658 46.7129 29.0157 46.0646 28.8507 45.2542C28.6857 44.4276 28.9745 43.7468 29.222 43.2119C29.4146 42.7743 29.4971 42.5474 29.4283 42.4015C29.1395 41.8343 27.3792 41.8505 25.9902 42.6447C24.7525 43.3416 24.0373 44.5248 23.666 45.4C23.5423 45.6918 23.2259 45.8215 22.9784 45.6594C22.7309 45.5135 22.6208 45.1407 22.7584 44.849C23.2122 43.8116 24.0648 42.3853 25.5639 41.5587C27.0354 40.7321 29.5796 40.3431 30.3222 41.7856C30.6935 42.515 30.391 43.2119 30.1572 43.763C29.9784 44.1844 29.7996 44.5896 29.8821 44.9786C29.9922 45.5135 30.501 45.8701 30.9136 46.097C33.3203 47.3612 38.5462 46.9884 40.4165 45.789C40.7328 45.5783 41.0766 45.3352 41.2004 44.9138C41.3242 44.5086 41.1729 44.1196 40.9391 43.5847C40.7053 43.0499 40.4578 42.4664 40.7053 41.8343C41.2692 40.4728 43.7309 40.57 45.4912 41.5425C46.9902 42.3853 47.8428 43.7954 48.2967 44.8328C48.3104 44.93 48.3242 45.0273 48.3242 45.1083Z" fill="#7D662D"/>
<path d="M31.3949 46.9398V57.8155C31.3949 58.1558 31.1611 58.4152 30.886 58.4152C30.611 58.4152 30.3772 58.1558 30.3772 57.8317V46.956C30.3772 46.6156 30.611 46.3563 30.886 46.3563C31.1611 46.3401 31.3949 46.5994 31.3949 46.9398Z" fill="#7D662D"/>
<path d="M40.6366 46.9398V57.8155C40.6366 58.1558 40.4028 58.4152 40.1277 58.4152C39.8389 58.4152 39.6189 58.1396 39.6189 57.8155V46.9398C39.6189 46.5994 39.8527 46.3401 40.1277 46.3401C40.4028 46.3239 40.6366 46.5994 40.6366 46.9398Z" fill="#7D662D"/>
<path d="M48.3104 32.4173C48.3104 32.5146 48.2967 32.6118 48.2554 32.6929C47.8016 33.7302 46.9489 35.1565 45.4499 35.9831C43.6896 36.9718 41.2279 37.0528 40.6641 35.7076C40.4028 35.0755 40.6641 34.4758 40.8841 33.9571C41.1179 33.406 41.2692 33.017 41.1454 32.628C41.0079 32.1742 40.609 31.9149 40.3615 31.7528C38.4912 30.5534 33.2515 30.1968 30.8586 31.461C30.446 31.688 29.9234 32.0445 29.8271 32.5794C29.7584 32.9036 29.4833 33.1143 29.2083 33.0332C28.9332 32.9522 28.7682 32.628 28.8232 32.3039C28.9882 31.4935 29.5246 30.8451 30.4322 30.3589C33.1827 28.9002 38.725 29.3216 40.8428 30.6993C41.1729 30.91 41.8468 31.3476 42.1081 32.239C42.3831 33.1467 42.0393 33.9409 41.7918 34.5082C41.6955 34.7351 41.5442 35.0917 41.5717 35.1889C41.723 35.5455 43.4283 35.7886 44.9961 34.8972C46.2338 34.2002 46.9489 33.017 47.3202 32.1418C47.444 31.85 47.7603 31.7204 48.0079 31.8825C48.2142 31.9797 48.3104 32.1904 48.3104 32.4173Z" fill="#7D662D"/>
<path d="M29.332 34.8486C29.332 35.1079 29.1945 35.3348 28.9882 35.4158C25.6876 36.7125 23.1434 33.6816 22.7309 32.7091C22.5933 32.4173 22.7034 32.0446 22.9509 31.8987C23.1985 31.7528 23.5148 31.8663 23.6385 32.158C23.8311 32.5956 25.8527 35.3834 28.6582 34.2813C28.9332 34.1678 29.222 34.3461 29.3045 34.6703C29.332 34.7189 29.332 34.7837 29.332 34.8486Z" fill="#7D662D"/>
<path d="M31.3811 19.7264V30.6021C31.3811 30.9424 31.1474 31.2018 30.8723 31.2018C30.5973 31.2018 30.3635 30.9262 30.3635 30.6021V19.7264C30.3635 19.386 30.5973 19.1267 30.8723 19.1267C31.1474 19.1267 31.3811 19.4022 31.3811 19.7264Z" fill="#7D662D"/>
<path d="M40.6091 19.7264V30.6021C40.6091 30.9424 40.3753 31.2018 40.1002 31.2018C39.8114 31.2018 39.5914 30.9262 39.5914 30.6021V19.7264C39.5914 19.386 39.8252 19.1267 40.1002 19.1267C40.389 19.1267 40.6091 19.386 40.6091 19.7264Z" fill="#7D662D"/>
</g>
</g>
</g>
</g>
<defs>
<clipPath id="clip0_1602_2267">
<rect y="311" width="311" height="200" rx="18" transform="rotate(-90 0 311)" fill="white"/>
</clipPath>
<clipPath id="clip1_1602_2267">
<rect width="311" height="96" fill="white" transform="matrix(0 -1 1 0 0 311)"/>
</clipPath>
<clipPath id="clip2_1602_2267">
<rect width="327" height="216" fill="white" transform="matrix(0 -1 1 0 0 311)"/>
</clipPath>
<clipPath id="clip3_1602_2267">
<rect width="327" height="217" fill="white" transform="matrix(0 -1 1 0 -1 311)"/>
</clipPath>
<clipPath id="clip4_1602_2267">
<rect width="327" height="216" fill="white" transform="matrix(0 -1 1 0 0 311)"/>
</clipPath>
<clipPath id="clip5_1602_2267">
<rect width="500" height="502.326" fill="white" transform="matrix(0 -1 1 0 -233.079 398)"/>
</clipPath>
</defs>
</svg>
